<svg width="20" height="20" viewBox="0 0 20 20" fill="none" xmlns="http://www.w3.org/2000/svg">
<path d="M5.47828 8.33333H14.4942L11.1415 3.48614L12.5017 2.5L16.5364 8.33333H17.4998C17.9601 8.33333 18.3332 8.70643 18.3332 9.16667C18.3332 9.6269 17.9601 10 17.4998 10L14.6064 16.5102C14.3389 17.1121 13.742 17.5 13.0834 17.5H6.91629C6.25764 17.5 5.66078 17.1121 5.39327 16.5102L2.49984 10C2.0396 10 1.6665 9.6269 1.6665 9.16667C1.6665 8.70643 2.0396 8.33333 2.49984 8.33333H3.43011L7.49984 2.5L8.85606 3.4918L5.47828 8.33333ZM4.32484 10L6.9165 15.8333H13.0801L15.6748 10H4.32484Z" fill="black"/>
</svg>
