<svg width="20" height="20" viewBox="0 0 20 20" fill="none" xmlns="http://www.w3.org/2000/svg">
<path d="M7.50008 3V5.16662" stroke="#616365"/>
<path d="M9.49982 3V5.16662" stroke="#616365"/>
<path d="M11.4998 3V5.16662" stroke="#616365"/>
<path d="M4 15.9995H14.9999" stroke="#616365"/>
<path d="M7.20603 16C6.24915 15.5059 5.43842 14.7132 4.87012 13.7161C4.30182 12.719 3.99983 11.5593 4 10.3749V7H15V10.3749C15.0002 11.5594 14.6982 12.719 14.1299 13.7161C13.5616 14.7132 12.7508 15.5059 11.7939 16" stroke="#616365"/>
<path d="M15.191 7C15.6708 7 16.1309 7.23413 16.4702 7.65087C16.8094 8.06762 17 8.63285 17 9.22222V9.77778C17 10.3671 16.8094 10.9324 16.4702 11.3491C16.1309 11.7659 15.6708 12 15.191 12H15" stroke="#616365" stroke-linecap="round" stroke-linejoin="round"/>
</svg>
