<svg width="20" height="20" viewBox="0 0 20 20" fill="none" xmlns="http://www.w3.org/2000/svg">
<path d="M9.13441 5.90286L9.75639 6.59037L10.3739 5.89887L10.8371 5.38025C11.9984 4.07985 12.9972 3.71788 13.8926 3.86432C15.0847 4.05927 15.9229 4.7932 16.3243 5.85519C16.7337 6.93848 16.703 8.4216 15.9745 10.048C15.4167 11.2931 14.1497 12.7903 12.7897 13.9959C12.1183 14.5911 11.4518 15.0905 10.8783 15.4355C10.5913 15.6081 10.3405 15.7342 10.1338 15.8151C9.91723 15.8999 9.79596 15.9163 9.75346 15.9163C9.7537 15.9163 9.75382 15.9163 9.75382 15.9163C9.75382 15.9162 9.72761 15.9153 9.66904 15.9001C9.60859 15.8844 9.52864 15.8574 9.42834 15.8151C9.22642 15.7297 8.97623 15.5964 8.68625 15.4145C8.10727 15.0513 7.42505 14.5296 6.73721 13.9187C5.33852 12.6765 4.04539 11.1804 3.53139 10.0456C2.73918 8.29662 2.67687 6.80778 3.06749 5.76439C3.44306 4.76121 4.27737 4.05188 5.60084 3.86636C6.51238 3.73858 7.51754 4.11565 8.66792 5.38723L9.13441 5.90286Z" stroke="black" stroke-width="1.66667"/>
</svg>
