<svg width="28" height="28" viewBox="0 0 28 28" fill="none" xmlns="http://www.w3.org/2000/svg">
<path d="M15.7492 24.7298C16.3935 24.3554 17.4169 23.9062 18.4781 23.7191C19.3498 23.5693 20.9038 22.8581 21.586 22.2966C22.6851 21.4356 22.9504 21.1735 23.5189 20.5746C23.9737 20.0879 24.5801 19.3392 25.035 18.5531C25.9825 16.8686 25.7551 16.1199 25.6793 16.1573C23.8979 16.7937 23.6705 16.8686 22.4577 17.2429C21.8134 17.4301 21.2828 17.6173 20.5247 17.8044C20.4489 17.8044 20.3731 17.5424 20.1836 17.2429C19.9183 16.906 19.7288 16.7937 19.7288 16.7937C19.7288 16.7937 20.828 15.5958 21.1691 15.0343C21.6997 14.2856 22.8746 12.5636 22.8746 12.5636C22.8746 12.5636 24.6559 11.478 25.8688 9.94322C27.0058 8.55815 27.2332 8.03407 27.6122 6.42439C27.8775 5.18906 27.6122 3.76655 26.9679 2.79326C26.4373 1.9697 26.0962 1.63279 25.035 0.958975C24.3527 0.547197 23.6326 0.285156 23.6326 0.285156C23.2915 0.846672 22.4577 2.26918 21.9271 2.90556C21.207 3.76655 20.6384 4.21576 20.032 4.73984C19.6151 5.11419 18.6297 5.86287 17.8717 6.38696C17.3411 6.7613 16.2798 7.39768 16.1282 7.50999C15.5218 7.88433 14.7259 8.25867 14.7259 8.25867C14.7259 8.25867 14.4606 9.3817 14.2711 9.98065C13.8921 11.1786 13.3236 12.1893 13.3236 12.1893C13.3236 12.1893 13.0583 10.5422 12.4897 9.53144C11.8833 8.44584 11.0874 7.8469 11.0495 7.62229C10.6326 5.30136 10.0262 4.92702 9.49557 4.32807C8.88916 3.65425 8.09324 3.01786 7.10781 2.60609C6.04659 2.15687 4.60635 1.7451 2.86291 2.11944C1.65008 2.38148 0.285645 2.90556 0.285645 2.90556C0.285645 2.90556 0.967861 3.69168 1.46057 4.3655C2.29439 5.5634 2.93871 6.53669 3.24192 7.36025C3.58303 8.22124 3.99994 9.3817 4.18944 10.093C4.37895 10.8416 4.53055 11.9272 4.53055 11.9272C4.53055 11.9272 5.62968 12.4139 6.12239 12.8631C6.5014 13.2 6.95621 13.6118 7.25942 14.3605C7.25942 14.3979 6.27399 14.7723 5.59178 15.2589C4.68215 15.8953 4.30314 16.3071 4.15154 16.9809C4.15154 16.9809 3.05241 17.8793 3.12821 18.8526C3.16612 19.2644 3.46932 19.6762 3.62093 19.8259C3.84833 20.0879 4.37895 20.4248 4.98536 20.2751C5.62968 20.1254 6.4256 19.2644 7.67633 19.7136C8.24484 19.9008 8.54805 20.6494 8.81336 21.1361C9.07866 21.6227 9.34397 21.9222 9.45767 22.334C9.60927 22.8206 9.34397 23.2324 9.07866 23.5319C8.77545 23.8314 7.86583 24.2806 7.60053 25.1041C7.37312 25.7405 7.56262 26.5266 8.24484 26.901C8.88916 27.2379 9.79878 27.0133 9.79878 27.0133C9.79878 27.0133 10.5947 27.8743 11.6938 27.6871C12.6792 27.4999 13.7784 26.5266 14.0058 26.2646C14.5743 25.5533 15.2565 25.0293 15.7492 24.7298Z" fill="black"/>
<path d="M23.1771 7.62361C27.801 5.37755 26.7019 3.99248 26.7019 3.99248C24.0867 6.61288 22.6086 6.83749 22.6086 6.83749C27.043 3.88018 25.527 2.56997 25.527 2.56997C24.4279 4.55399 21.8506 6.16367 21.8506 6.16367C25.5649 2.45767 24.0868 1.59668 24.0868 1.59668C22.1917 5.34011 15.6727 8.89638 15.6727 8.89638C14.7631 14.0249 10.973 16.3084 10.973 16.3084L11.5794 15.41C11.4657 15.41 10.1771 15.3725 10.1771 15.3725L10.2908 15.0356C9.72229 15.0356 7.86515 15.3725 7.86515 15.3725L7.90305 14.9982C6.72812 15.4474 5.66689 16.2709 5.17418 16.7576C4.68147 17.2442 5.02258 17.3565 5.02258 17.3565C4.64357 17.6186 4.15085 18.1427 4.15085 18.1427C3.73394 18.779 4.15085 19.116 4.41616 19.3406C4.71937 19.6026 4.60567 19.3031 4.60567 19.3031C4.26456 18.8539 4.75727 18.5919 4.75727 18.5919C5.28788 18.4421 5.51529 18.2175 5.51529 18.2175V18.4796C5.43949 18.5544 5.40159 18.5919 5.36368 18.6667C5.24998 18.779 5.13628 18.9288 5.02258 19.0785C4.98467 19.116 4.94677 19.1908 4.90887 19.2283L4.94677 19.2657C4.98467 19.2657 5.06048 19.2283 5.09838 19.2283C5.21208 19.1908 5.32578 19.1534 5.43949 19.0785C5.62899 18.9662 5.8564 18.8913 6.0459 18.7416C6.65232 18.5919 7.52404 18.6293 7.52404 18.6293C8.58526 18.6293 9.30538 19.9021 9.30538 19.9021C10.2908 22.223 12.148 22.4476 12.148 22.4476C12.1101 22.2979 11.8068 21.8112 11.8068 21.8112C14.1946 23.9076 10.973 25.1429 10.973 25.1429C10.5182 25.8541 10.4803 26.3408 10.4803 26.3408C10.6319 26.9397 11.6552 26.7526 11.6552 26.7526C10.8214 26.4531 11.4278 25.7044 11.4278 25.7044C11.3141 26.9397 12.6407 26.1536 12.6407 26.1536C11.5415 26.3034 12.2238 25.3301 12.2238 25.3301C12.1101 26.3782 13.3608 25.4424 13.3608 25.4424C12.1859 25.5547 13.0197 24.806 13.0197 24.806C13.3608 24.4691 14.9147 24.0199 14.9147 24.0199C14.5357 23.945 14.1946 23.6829 14.1946 23.6829C14.9526 23.5706 16.1276 23.2337 16.1276 23.2337C15.3695 22.9717 15.0663 22.6348 15.0663 22.6348C15.7485 22.6348 16.5445 22.2604 16.5445 22.2604C18.3637 23.084 19.1217 22.3727 19.1217 22.3727C18.7048 22.3727 17.3025 21.7364 17.3025 21.7364C19.6902 22.7471 20.6757 21.6989 20.6757 21.6989C19.8039 21.6989 18.0984 21.3246 18.0984 21.3246C20.8652 21.8112 21.9643 20.6882 21.9643 20.6882C20.4104 20.6882 18.5532 20.7256 18.5532 20.7256C22.6844 20.5759 23.2908 19.2657 23.2908 19.2657C21.8506 19.64 18.7427 20.0892 18.7427 20.0892C24.0867 19.1534 24.4658 17.394 24.4658 17.394C21.2821 18.9288 17.1888 19.6026 17.1888 19.6026L15.9001 19.378C12.6407 20.3513 12.1859 19.0037 12.1859 19.0037C16.0897 21.6989 21.5853 12.4152 21.5853 12.4152C19.9934 12.9393 19.6523 12.7896 19.6523 12.7896C23.6319 11.4419 23.7456 10.6932 23.7456 10.6932C21.8127 11.2173 21.3958 11.0676 21.3958 11.0676C24.5037 10.5435 25.0722 9.27072 25.0722 9.27072C22.9118 10.0194 22.0022 9.86967 22.0022 9.86967C26.3608 8.89638 26.0197 7.77335 26.0197 7.77335C24.0109 8.67177 22.7981 8.70921 22.7981 8.70921C27.2704 7.32414 26.6261 6.01393 26.6261 6.01393C24.8827 7.36157 23.1771 7.62361 23.1771 7.62361ZM5.78059 17.8058C5.74269 17.8058 5.66689 17.8432 5.62899 17.8432C5.55319 17.8432 5.43949 17.8806 5.36368 17.8806C5.24998 17.9181 5.13628 17.9181 5.02258 17.9555C4.94677 17.9555 4.90887 17.9929 4.83307 17.9929C4.83307 17.9929 4.79517 18.0304 4.79517 17.9929V17.9555C4.83307 17.9181 4.87097 17.8806 4.90887 17.8432C4.94677 17.8058 5.02258 17.7309 5.06048 17.6935C5.09838 17.656 5.17418 17.6186 5.21208 17.5811C5.21208 17.5811 5.28788 17.5437 5.28788 17.5063C5.28788 17.5063 5.28788 17.656 5.70479 17.7309C5.70479 17.7683 5.74269 17.7683 5.78059 17.8058C5.78059 17.7683 5.78059 17.7683 5.78059 17.8058C5.8185 17.7683 5.8185 17.7683 5.78059 17.8058ZM5.78059 17.3565C5.59109 17.3565 5.43949 17.1694 5.43949 17.1694L6.0838 16.795L5.78059 17.3565ZM8.43366 17.394L8.20626 17.5811L7.22083 17.3191L8.43366 17.394ZM9.30538 16.7202L8.96427 17.0196L7.22083 16.7576L9.30538 16.7202ZM10.0255 15.8592L9.60859 16.1961L7.37243 16.1212L10.0255 15.8592ZM12.906 18.0304C11.4278 18.2175 10.9351 17.8432 10.9351 17.8432C13.8535 17.8806 16.1276 17.1694 16.1655 17.1694L12.906 18.0304ZM16.1655 17.1694C14.7631 17.6935 13.7019 17.9555 12.906 18.0304L16.1655 17.1694ZM17.7952 15.1853C13.3608 17.7309 11.6552 17.0945 11.6552 17.0945C15.2179 16.4581 17.7573 15.1853 17.7952 15.1853C17.7952 15.1479 17.7952 15.1479 17.7952 15.1853Z" fill="#FFD100"/>
<path d="M9.91294 24.8051C9.79924 25.741 10.9363 24.9174 10.9363 24.9174C10.8605 24.9549 10.5194 24.9549 10.4436 24.88C10.3299 24.8051 10.3678 24.7677 10.3678 24.6554C10.3678 24.3934 10.5194 24.2062 10.7468 24.0939C11.1637 23.8318 11.8459 23.5698 12.3765 23.6072C12.5281 23.158 12.3765 23.0083 12.2628 22.7462C11.5048 22.7088 11.05 22.4093 10.4057 21.7729C10.6331 22.1099 10.5952 22.5216 10.4815 22.8585C10.3678 23.158 10.1783 23.5698 9.95084 23.7944C9.72344 24.0564 9.45813 24.2436 9.15493 24.3934C9.07912 24.4308 8.77592 24.5057 8.73802 24.5805C8.35901 25.2169 8.2832 25.6661 8.2832 25.6661C8.43481 26.1902 9.34443 26.0405 9.34443 26.0405C8.58641 25.741 9.15493 25.1046 9.15493 25.1046C9.07912 26.2276 10.2541 25.5164 10.2541 25.5164C9.26863 25.6661 9.91294 24.8051 9.91294 24.8051Z" fill="#FFD100"/>
<path d="M8.69942 15.0345C8.69942 15.0345 10.5566 14.6976 11.3525 14.6976C11.3525 14.6976 10.9356 14.2484 9.41954 13.9489C9.41954 13.9489 9.98806 13.6869 10.8598 13.6869C10.8598 13.6869 10.4808 13.3499 9.07843 13.013C9.07843 13.013 9.64695 12.7884 10.2913 12.7884C10.2913 12.7884 9.64695 12.4141 8.62362 12.2269C8.62362 12.2269 9.15424 12.0397 9.79855 12.0397C9.79855 12.0397 9.04053 11.6654 8.16881 11.5531C8.16881 11.5531 8.73733 11.3659 9.26794 11.3285C9.26794 11.3285 8.32042 10.8793 7.6382 10.9167C7.6382 10.9167 8.35832 10.7295 8.54782 10.6921C8.54782 10.6921 7.5624 10.3178 7.06969 10.3178C7.06969 10.3178 7.6761 10.168 7.8277 10.168C7.8277 10.168 7.18339 9.94342 6.72858 9.86855C6.72858 9.86855 9.15424 8.82039 11.6936 15.1468C11.6936 15.1468 13.8161 11.6654 10.3292 8.29631L9.95016 8.82038C9.95016 8.82038 10.3671 6.53689 8.77523 4.96465C8.77523 4.96465 9.23004 6.91123 9.00263 7.32301C9.00263 7.32301 8.73733 4.478 7.5245 3.72931C7.5245 3.72931 8.01721 5.30156 7.8656 5.90051C7.8656 5.90051 7.41079 3.50471 6.27377 3.09293C6.27377 3.09293 6.95598 4.62774 6.76648 5.30156C6.76648 5.30156 6.16006 2.86832 4.94723 2.79346C4.94723 2.79346 5.78105 4.55287 5.66735 4.96465C5.66735 4.96465 4.79563 2.79346 3.39329 2.68115C3.39329 2.68115 4.60612 4.70261 4.53032 5.00208C4.53032 5.00208 2.97638 2.53142 1.83936 3.13036C1.83936 3.13036 4.34082 5.33899 5.47785 11.029C5.51575 11.1039 7.8656 12.0772 8.69942 15.0345Z" fill="#FFD100"/>
<path d="M18.4004 17.9171C18.4004 18.2915 18.7036 18.5535 19.0826 18.5535C19.4237 18.5535 19.7269 18.2541 19.7269 17.9171C19.7269 17.5428 19.4237 17.2808 19.0826 17.2808C18.7036 17.2808 18.4004 17.5428 18.4004 17.9171ZM19.6132 17.9171C19.6132 18.2541 19.3858 18.4787 19.0826 18.4787C18.7794 18.4787 18.552 18.2541 18.552 17.9171C18.552 17.6177 18.7794 17.3556 19.0826 17.3556C19.3858 17.3556 19.6132 17.6177 19.6132 17.9171Z" fill="#FFD100"/>
<path d="M18.8157 18.291H18.9294V17.9541H19.0431L19.2705 18.291H19.3842L19.1568 17.9541C19.2705 17.9541 19.3463 17.8792 19.3463 17.7295C19.3463 17.5798 19.2705 17.5049 19.081 17.5049H18.7778V18.291H18.8157ZM18.9294 17.6172H19.081C19.1568 17.6172 19.2326 17.6172 19.2326 17.7295C19.2326 17.8418 19.1189 17.8418 19.0431 17.8418H18.9294V17.6172Z" fill="#FFD100"/>
</svg>
