<svg width="255" height="38" viewBox="0 0 255 38" fill="none" xmlns="http://www.w3.org/2000/svg">
<g clip-path="url(#clip0_3_3221)">
<path fill-rule="evenodd" clip-rule="evenodd" d="M20.126 31.0616V37.3096H0.179697L0 0H6.82845L6.64875 31.0616H20.126Z" fill="#0F0F0F"/>
<path fill-rule="evenodd" clip-rule="evenodd" d="M32.1639 37.3101H25.5152V19.1016L14.5537 0.000488281H21.9212L28.3903 11.604L34.5 0.000488281H42.2269L32.1639 19.2801V37.3101Z" fill="#0F0F0F"/>
<path fill-rule="evenodd" clip-rule="evenodd" d="M64.3408 31.0616V37.3096H44.3945L44.2148 0H51.0433L50.8636 31.0616H64.3408Z" fill="#0F0F0F"/>
<path fill-rule="evenodd" clip-rule="evenodd" d="M73.6859 6.78083V15.3496H85.1864L85.3661 21.9546H73.6859V31.0589H90.9367V37.4854H66.8574L67.0371 0.175781H86.8037V6.78083H73.6859Z" fill="#0F0F0F"/>
<path fill-rule="evenodd" clip-rule="evenodd" d="M137.46 6.77683C135.843 6.77683 134.945 7.13386 134.226 7.84792C133.507 8.56198 133.327 9.45455 133.507 10.7042C133.507 11.2397 133.866 11.7752 134.406 12.4893C134.945 13.2034 136.382 14.453 139.078 16.5952C141.773 18.5588 143.75 20.5225 145.008 22.3076C146.086 23.9143 146.805 25.6994 146.984 27.4846C147.344 30.1623 146.625 32.6615 145.008 34.6252C143.211 36.7673 140.695 37.6599 137.46 37.6599H127.936L127.757 31.0549H137.101C137.999 31.0549 138.718 30.6978 139.617 30.1623C140.336 29.6267 140.515 28.9127 140.336 28.0201C140.336 27.4846 139.976 26.7705 139.437 25.8779C138.898 25.1639 137.46 23.7358 134.585 21.7721C131.89 19.6299 129.913 17.8448 128.655 16.0596C127.577 14.453 127.038 12.6678 126.679 11.0612C126.319 8.02644 127.218 5.52722 129.194 3.56356C131.351 1.59989 133.866 0.528809 137.101 0.528809H144.469V7.13386L137.46 6.77683Z" fill="#0F0F0F"/>
<path fill-rule="evenodd" clip-rule="evenodd" d="M222.819 7.67292V37.4849H215.81V7.67292H208.443V1.06787H230.366V7.67292H222.819Z" fill="#0F0F0F"/>
<path fill-rule="evenodd" clip-rule="evenodd" d="M247.076 7.67292V37.4849H240.068V7.67292H232.7V1.06787H254.623V7.67292H247.076Z" fill="#0F0F0F"/>
<path fill-rule="evenodd" clip-rule="evenodd" d="M171.962 7.31315C166.571 6.95612 162.618 8.38424 160.102 11.062C157.587 13.7397 156.508 17.31 156.868 21.4158C157.048 24.2721 157.946 26.5928 159.563 28.1994C161.001 29.806 162.977 30.6986 165.134 30.8771C166.212 30.8771 167.65 30.6986 169.267 30.1631C170.884 29.449 172.501 28.7349 173.759 27.4853L175.916 25.7002L175.556 34.6259C171.603 36.7681 168.368 37.6607 164.954 37.4822C161.001 37.3037 157.407 35.697 154.711 32.6623C151.836 29.6275 150.219 25.8787 149.86 21.4158C149.321 14.9893 150.938 9.81236 155.071 5.88503C159.024 1.9577 164.774 0.351059 171.783 0.708089L176.275 0.886601L175.556 7.49166L171.962 7.31315Z" fill="#0F0F0F"/>
<path fill-rule="evenodd" clip-rule="evenodd" d="M207.729 15.7071C208.628 21.7766 207.729 27.132 204.854 31.2379C202.159 35.3437 198.385 37.6644 193.533 37.6644C189.76 37.6644 186.525 36.2363 183.65 33.2015C180.775 30.3453 179.158 26.5965 178.619 22.1336C177.9 16.5996 178.798 11.6012 181.314 7.13834C183.83 2.67547 187.783 0.17627 192.814 0.17627C196.588 0.17627 200.002 1.60438 202.698 4.46062C205.573 7.49537 207.19 11.2442 207.729 15.7071ZM200.901 14.993C200.541 12.3153 199.643 10.1731 198.385 8.74498C197.127 7.31686 195.51 6.60281 193.713 6.60281C190.838 6.60281 188.681 8.03093 187.064 11.2442C185.447 14.4575 185.088 18.2063 185.627 22.4906C185.986 25.3469 186.885 27.3106 188.322 28.9172C189.58 30.3453 191.197 31.0594 193.174 31.0594C195.69 31.0594 197.846 29.6312 199.463 26.5965C200.901 23.3832 201.62 19.6344 200.901 14.993Z" fill="#0F0F0F"/>
<path d="M108.003 37.8474C105.667 37.8474 103.51 37.1334 101.714 35.8838C99.7368 34.4557 98.479 32.3135 97.9399 29.6358C97.4008 26.7795 97.7602 23.2092 102.073 21.067C100.096 19.8174 99.0181 18.0323 98.479 15.7116C98.1196 13.2124 98.6587 11.0702 100.276 9.10654C101.893 7.32139 103.87 6.25029 106.565 6.07178C106.745 6.07178 107.284 6.07178 107.823 6.07178C108.901 6.07178 109.98 6.07178 110.339 6.07178H110.878L111.058 10.8917H110.339C110.339 10.8917 110.159 10.8917 109.98 10.8917C109.261 10.8917 107.643 10.8917 107.284 10.8917C106.026 10.8917 105.128 11.4272 104.409 12.3198C103.69 13.2124 103.51 14.1049 103.69 15.176C103.87 16.2471 104.409 16.9612 105.128 17.6753C105.667 18.2108 106.925 18.5678 108.722 18.5678C109.261 18.5678 109.62 18.5678 109.62 18.5678H110.339L110.519 23.5662H109.8C109.44 23.5662 108.542 23.5662 108.003 23.7448H107.464C106.026 23.7448 104.768 24.4588 103.87 25.5299C102.971 26.601 102.792 27.8506 102.971 29.1002C103.151 30.1713 103.69 31.0639 104.768 31.9564C105.667 32.6705 106.745 33.0275 107.823 33.0275H108.183C109.8 33.0275 111.058 32.3135 111.956 31.2424C112.675 30.3498 113.573 29.2787 113.573 25.8869V25.1729H120.402L120.582 30.3498H118.066C117.886 31.9564 117.167 33.3846 116.089 34.6342C114.292 36.5978 111.776 37.8474 108.722 38.026C108.542 37.8474 108.362 37.8474 108.003 37.8474Z" fill="#0F0F0F"/>
</g>
<defs>
<clipPath id="clip0_3_3221">
<rect width="255" height="38" fill="white"/>
</clipPath>
</defs>
</svg>
